<svg width="15" height="15" fill="none" xmlns="http://www.w3.org/2000/svg"><path d="M7.2593 1.7991c1.9297 0 2.1582.0085 2.9171.0423.7053.031 1.0862.1495 1.3401.2483.3357.1298.5783.2877.8294.5388.2539.254.4091.4937.5389.8295.0987.2539.2172.6375.2482 1.34.0339.7617.0423.9902.0423 2.9171 0 1.9297-.0084 2.1582-.0423 2.9171-.031.7053-.1495 1.0862-.2482 1.3401-.1298.3357-.2878.5783-.5389.8294-.2539.2539-.4937.4091-.8294.5389-.2539.0987-.6376.2172-1.3401.2482-.7617.0339-.9902.0423-2.917.0423-1.9298 0-2.1583-.0084-2.9172-.0423-.7053-.031-1.0861-.1495-1.34-.2482-.3357-.1298-.5784-.2878-.8295-.5389-.2539-.2539-.409-.4937-.5388-.8294-.0987-.2539-.2172-.6376-.2483-1.3401-.0338-.7617-.0423-.9902-.0423-2.917 0-1.9298.0085-2.1583.0423-2.9172.031-.7053.1496-1.0861.2483-1.34.1298-.3358.2878-.5784.5388-.8295.254-.2539.4938-.409.8295-.5388.2539-.0988.6376-.2173 1.34-.2483.759-.0338.9874-.0423 2.9171-.0423Zm0-1.3006C5.2986.4985 5.0532.507 4.283.541c-.7674.0338-1.295.158-1.752.3357-.4768.1862-.8802.4316-1.2808.835-.4034.4006-.6489.804-.835 1.278-.1778.4599-.302.9846-.3358 1.752C.0456 5.5146.0371 5.76.0371 7.7208c0 1.9607.0085 2.2061.0423 2.9763.0339.7674.158 1.2949.3357 1.752.1862.4767.4317.8802.8351 1.2808.4006.4006.804.6488 1.278.8322.4599.1778.9846.3019 1.752.3357.7702.0339 1.0156.0424 2.9763.0424s2.2062-.0085 2.9764-.0424c.7673-.0338 1.2949-.1579 1.7519-.3357.474-.1834.8774-.4316 1.278-.8322.4006-.4006.6489-.8041.8323-1.278.1777-.4599.3018-.9846.3357-1.752.0338-.7702.0423-1.0156.0423-2.9763s-.0085-2.2062-.0423-2.9764c-.0339-.7673-.158-1.2949-.3357-1.752-.1778-.4795-.4232-.883-.8267-1.2836-.4006-.4006-.804-.6488-1.2779-.8322-.4599-.1777-.9846-.3019-1.752-.3357C9.4655.507 9.2201.4985 7.2593.4985Z" fill="#fff"/><path d="M7.2592 4.011c-2.0482 0-3.7099 1.6617-3.7099 3.7098 0 2.0482 1.6617 3.7099 3.7099 3.7099 2.0481 0 3.7098-1.6617 3.7098-3.7099 0-2.0481-1.6617-3.7098-3.7098-3.7098Zm0 6.1163c-1.3288 0-2.4065-1.0777-2.4065-2.4065 0-1.3287 1.0777-2.4064 2.4065-2.4064 1.3287 0 2.4064 1.0777 2.4064 2.4064 0 1.3288-1.0777 2.4065-2.4064 2.4065ZM11.9822 3.8641c0 .4796-.3893.8661-.8661.8661-.4796 0-.8661-.3893-.8661-.866 0-.4796.3893-.8661.8661-.8661s.8661.3893.8661.866Z" fill="#fff"/></svg>