<svg width="20" height="25" fill="none" xmlns="http://www.w3.org/2000/svg"><path fill-rule="evenodd" clip-rule="evenodd" d="M19.2 11.6667h-2.4v-6.8a.8614.8614 0 0 0-.0601-.3194.8336.8336 0 0 0-.1734-.2707.7963.7963 0 0 0-.2599-.1806A.7695.7695 0 0 0 16 4.0333h-.4v-3.2c0-.221-.0843-.433-.2343-.5892C15.2157.0878 15.0122 0 14.8 0s-.4157.0878-.5657.244C14.0843.4005 14 .6124 14 .8334v3.2h-1.6v-3.2c0-.221-.0843-.433-.2343-.5892C12.0157.0878 11.8122 0 11.6 0s-.4157.0878-.5657.244c-.15.1564-.2343.3683-.2343.5893v3.2H9.2v-3.2c0-.221-.0843-.433-.2343-.5892C8.8157.0878 8.6122 0 8.4 0s-.4157.0878-.5657.244C7.6843.4005 7.6.6124 7.6.8334v3.2H6v-3.2c0-.221-.0843-.433-.2343-.5892C5.6157.0878 5.4122 0 5.2 0s-.4157.0878-.5657.244C4.4843.4005 4.4.6124 4.4.8334v3.2H4a.7696.7696 0 0 0-.3066.0627.7957.7957 0 0 0-.26.1806.8336.8336 0 0 0-.1732.2707.8605.8605 0 0 0-.0602.3194v6.8H.8c-.212.0006-.415.0886-.565.2448-.1499.1561-.2344.3677-.235.5885v11.6667a.8606.8606 0 0 0 .0601.3193.834.834 0 0 0 .1734.2708.7958.7958 0 0 0 .26.1805A.7683.7683 0 0 0 .8 25h18.4a.7682.7682 0 0 0 .3066-.0627.7964.7964 0 0 0 .2599-.1805.834.834 0 0 0 .1734-.2708.8614.8614 0 0 0 .0601-.3193V12.5c-.0006-.2208-.0851-.4324-.235-.5885-.1499-.1562-.353-.2442-.565-.2448ZM4.8 5.7h10.4v5.9667H4.8V5.7Zm-3.2 7.6333h16.8v1.8c-.5105.194-.963.5245-1.312.9584-.368.4-.552.575-.96.575-.408 0-.584-.175-.96-.575a2.6708 2.6708 0 0 0-.9309-.8038 2.5583 2.5583 0 0 0-1.1771-.288c-.4084 0-.8113.0986-1.1771.288a2.6708 2.6708 0 0 0-.9309.8038c-.368.4-.552.575-.96.575-.408 0-.584-.175-.952-.575-.2474-.3393-.5667-.6144-.9331-.8038a2.5654 2.5654 0 0 0-1.1789-.288c-.409 0-.8125.0986-1.1789.288-.3664.1894-.6857.4645-.9331.8038-.368.4-.544.575-.952.575-.408 0-.584-.175-.952-.575-.3474-.4357-.8004-.7666-1.312-.9584v-1.8Zm16.8 10H1.6v-6.25c.048.0417.096.1.152.1584.2474.3393.5667.6144.9331.8038a2.5653 2.5653 0 0 0 1.1789.2879c.409 0 .8125-.0985 1.1789-.2879.3664-.1894.6857-.4645.9331-.8038.368-.3917.544-.575.952-.575.408 0 .592.1833.952.5833.2489.337.5687.61.9349.7979.3662.1878.769.2855 1.1771.2855.4082 0 .8109-.0977 1.1771-.2855a2.691 2.691 0 0 0 .9349-.7979c.368-.4.544-.5833.952-.5833.416 0 .592.1833.96.5833.2488.337.5687.61.9349.7979a2.5777 2.5777 0 0 0 1.1771.2855c.4082 0 .8109-.0977 1.1771-.2855.3662-.1879.686-.4609.9349-.7979.056-.0667.112-.125.16-.175v6.2583Z" fill="#FFB577"/></svg>