<svg width="25" height="22" fill="none" xmlns="http://www.w3.org/2000/svg"><path d="M16.4063 21.1544v-3.3822c0-.2243-.0823-.4393-.2289-.5979-.1465-.1586-.3452-.2477-.5524-.2477H.7813c-.2073 0-.406.0891-.5525.2477-.1465.1586-.2288.3736-.2288.5979v3.3822c0 .2243.0823.4394.2288.5979.1465.1586.3452.2477.5525.2477H15.625c.2072 0 .4059-.0891.5524-.2477.1466-.1585.2289-.3736.2289-.5979Zm-1.5625-.8455H1.5625v-1.6911h13.2813v1.6911Zm-12.5-5.9189c-.2072 0-.406.089-.5525.2476-.1465.1586-.2288.3737-.2288.5979 0 .2243.0823.4393.2288.5979.1465.1586.3453.2477.5525.2477h11.7187c.2072 0 .4059-.0891.5524-.2477.1466-.1586.2289-.3736.2289-.5979 0-.2242-.0823-.4393-.2289-.5979-.1465-.1586-.3452-.2476-.5524-.2476H2.3437Zm-1.5625-.8456H15.625c.2072 0 .4059-.0891.5524-.2477.1466-.1585.2289-.3736.2289-.5979 0-.0592-.0938-5.9189-8.2032-5.9189C.0938 6.78 0 12.6396 0 12.6988c0 .2243.0823.4394.2288.5979.1465.1586.3452.2477.5525.2477ZM8.203 8.471c4.7141 0 6.0821 2.1427 6.4786 3.3823H1.7247C2.121 10.6137 3.489 8.471 8.203 8.471Zm16.0157-3.3822H20.193l-.6723-4.367a.89.89 0 0 0-.1044-.3139.8243.8243 0 0 0-.2085-.2458.755.755 0 0 0-.2801-.1394.7235.7235 0 0 0-.3082-.0112.7465.7465 0 0 0-.2881.1187.8125.8125 0 0 0-.2233.2301.8827.8827 0 0 0-.1237.3057.915.915 0 0 0-.0047.3337l.6293 4.089h-.6402a.7308.7308 0 0 0-.3089.069.7833.7833 0 0 0-.2585.1954.8568.8568 0 0 0-.1661.2902.9096.9096 0 0 0-.0466.3376l.7812 15.22c.011.2159.098.4191.2431.5677s.3373.2314.537.2314h4.6875c.1997 0 .3919-.0828.5369-.2313.1451-.1485.2321-.3515.2432-.5673l.7813-15.2201a.9114.9114 0 0 0-.0468-.3375.862.862 0 0 0-.1661-.2901.7848.7848 0 0 0-.2585-.1956.7314.7314 0 0 0-.3087-.0693Zm-1.5203 15.2201h-3.2094l-.6945-13.529h4.598l-.6941 13.529Z" fill="#FFB577"/></svg>