<svg width="26" height="26" fill="none" xmlns="http://www.w3.org/2000/svg"><path d="m16.613 9.622-.001-.008c-.33-2.195-.715-4.764-3.547-7C11.51 1.388 9.893.75 8.261.75c-2.97 0-4.84 2.096-4.94 2.21a11.25 11.25 0 0 0-1.498 2.248C1.149 6.528.546 8.338.816 10.32c.331 2.426 1.882 4.502 4.545 6.183l.01.006.051.029.012.006c.106.053 1.407.698 2.868 1.388 1.452.685 3.09 1.428 3.856 1.666.686.213 1.263.316 1.809.316.43 0 .834-.07 1.213-.205l2.512 1.587c-.045.432-.06 1.05.1 1.675.18.714.588 1.448 1.434 1.914.435.24.922.365 1.417.365.71 0 1.412-.257 1.96-.755a2.65 2.65 0 0 0 .89-2.108c.478-.148 1.051-.432 1.418-.98v-.001c.286-.43.518-1.148.146-2.173-.385-1.066-1.173-1.59-2.02-1.795-.786-.189-1.624-.106-2.27.054l-2.223-1.751c.124-.745-.066-1.465-.566-2.082-.927-1.149-1.137-2.511-1.365-4.037Zm-.705 7.302-.035.027-.023.038-.054.088v.001c-.331.548-.674.836-.98.99-.308.155-.6.186-.848.186-.361 0-.778-.074-1.322-.242-.655-.203-2.159-.884-3.569-1.55a191.281 191.281 0 0 1-2.872-1.387c-2.255-1.433-3.493-3.11-3.75-4.973-.216-1.57.292-3.066.874-4.188a10.637 10.637 0 0 1 1.114-1.715 4.23 4.23 0 0 1 .112-.132l.002-.003c.006-.007.376-.419 1.022-.83.653-.416 1.576-.823 2.682-.823 1.23 0 2.5.497 3.783 1.509 2.312 1.825 2.609 3.786 2.934 5.95l.003.022c.239 1.59.496 3.305 1.714 4.813a.983.983 0 0 1 .226.466c.03.186.005.441-.186.79-.248.453-.613.78-.736.89a1.826 1.826 0 0 1-.011.01l-.08.063Zm.981-2.376c.232.286.49.757.065 1.533l-.065-1.533Zm4.794 7.111.25.021-3.032-1.286.134-.212-2.374-1.499c.176-.195.335-.405.476-.628.257-.231.49-.487.697-.763l2.248 1.77h.001a.832.832 0 0 0 .779.132l.004-.002a4.177 4.177 0 0 1 1.218-.207c.618-.002 1.19.181 1.42.815.134.367.106.573.035.68-.083.125-.269.233-.508.31-.23.075-.456.105-.558.11a.825.825 0 0 0-.79.759Z" fill="#FFB577" stroke="#FFB577" stroke-width=".5"/></svg>