<svg width="96" height="20" fill="none" xmlns="http://www.w3.org/2000/svg"><g clip-path="url(#a)" fill="#FFB577"><path d="M95.8297 14.8287v2.3723h-1.9929c-2.1266-.0667-3.2628-1.2135-3.2628-3.3674V8.4154h-1.3914V6.3343h1.3914v-2.33h2.9408V6.31h2.2481v2.075h-2.2481v5.1574c0 .6977.1397 1.2559 1.2152 1.2559l1.0997.0304ZM77.462 11.7891v-.1578a5.3032 5.3032 0 0 1 1.3902-3.8269 5.3148 5.3148 0 0 1 1.6762-1.227 5.3223 5.3223 0 0 1 2.0192-.4917h.4253c2.7767 0 5.2132 1.614 5.2132 5.4607v.8191h-7.7165c.079 1.7717 1.039 2.7728 2.6552 2.7728 1.3914 0 2.0415-.6068 2.2299-1.4926h2.7767c-.3402 2.3117-2.1873 3.598-5.1099 3.598-3.2081-.0243-5.5595-2.0508-5.5595-5.4546Zm7.8319-1.2803c-.1032-1.6139-.9174-2.3905-2.3331-2.3905s-2.2299.8737-2.4304 2.3905h4.7635ZM65.4562 11.7891v-.1578a5.3026 5.3026 0 0 1 .312-2.049 5.3088 5.3088 0 0 1 1.0738-1.7737 5.3168 5.3168 0 0 1 1.6721-1.228 5.3233 5.3233 0 0 1 2.0155-.495h.4253c2.7767 0 5.2193 1.614 5.2193 5.4608v.8191h-7.7104c.079 1.7717 1.039 2.7728 2.6552 2.7728 1.3914 0 2.0415-.6068 2.2299-1.4926h2.7767c-.3464 2.3117-2.1934 3.598-5.116 3.598-3.202-.0243-5.5534-2.0508-5.5534-5.4546Zm7.8319-1.2803c-.1033-1.6139-.9175-2.3905-2.3332-2.3905-1.4157 0-2.2055.898-2.4303 2.3845l4.7635.006ZM48.6074 6.31h3.1109l1.9018 7.196 2.084-7.196h2.4304l1.8836 7.196 2.005-7.196h2.8496l-3.3782 10.6908h-2.9164l-1.8228-6.7105-1.9504 6.7105H51.852L48.6074 6.3101ZM38.7222 13.6395h2.7767c.1276.9647.6076 1.5168 1.8835 1.5168 1.1423 0 1.6709-.4308 1.6709-1.1649 0-.7342-.6076-1.0436-2.163-1.262-2.8496-.4308-3.9494-1.2499-3.9494-3.3371 0-2.2268 2.0415-3.331 4.2532-3.331 2.3757 0 4.1681.8616 4.4233 3.3189h-2.7403a1.4437 1.4437 0 0 0-1.0209-1.25 1.4483 1.4483 0 0 0-.5649-.0545h-.0912c-.96 0-1.5189.449-1.5189 1.1042 0 .6553.5164.9405 2.084 1.165 2.6613.4004 4.1499 1.0739 4.1499 3.3613s-1.6831 3.5131-4.5023 3.5131-4.6116-1.2681-4.6906-3.5798ZM26.9224 6.31h2.9407v1.6928a3.6796 3.6796 0 0 1 1.4496-1.4788 3.6861 3.6861 0 0 1 2.0198-.4628c2.084 0 3.597 1.2681 3.597 4.1623v6.8016h-2.9044v-6.3769c0-1.4501-.565-2.1418-1.8774-2.1418a2.1176 2.1176 0 0 0-1.5467.4895 2.1116 2.1116 0 0 0-.744 1.4399 1.6707 1.6707 0 0 0 0 .3884v6.1766h-2.9346V6.31ZM21.2476 3.6224a1.4786 1.4786 0 0 1 .22-.8315 1.4818 1.4818 0 0 1 .6458-.569 1.4843 1.4843 0 0 1 1.6268.264 1.4795 1.4795 0 0 1 .3772 1.6022 1.481 1.481 0 0 1-.5234.683 1.484 1.484 0 0 1-.8153.2771h-.0547a1.3872 1.3872 0 0 1-1.0052-.3443 1.383 1.383 0 0 1-.4652-.9541.904.904 0 0 1-.006-.1274Zm0 2.6878h2.9711V17.001h-2.959l-.0121-10.6908ZM10.0498 2.3906h9.3934v2.5908h-6.0759v3.865h4.8121V11.34h-4.8182v5.6609h-3.3114V2.3906ZM4.3808 7.1717c0 .9162 0 2.0326-1.2638 2.4876 1.2941.4429 1.2638 1.3834 1.2638 2.3663v3.6405c0 .6917.2794 1.1103.7777 1.2134a.9427.9427 0 0 0 .3402.0486H6.714v2.427H4.709c-2.1388 0-3.3175-1.2135-3.3175-3.4645v-4.3079a.8854.8854 0 0 0-.2737-.5814.8884.8884 0 0 0-.5952-.2438H0V8.6279h.5225a.8816.8816 0 0 0 .6047-.251.8791.8791 0 0 0 .2642-.5985V3.41C1.3914 1.1953 2.5458 0 4.7089 0H6.732v2.3906H5.517a1.1073 1.1073 0 0 0-.3403.0546c-.4982.1274-.7777.54-.7777 1.2135l-.0182 3.513Z"/></g><defs><clipPath id="a"><path fill="#fff" d="M0 0h96v19.4157H0z"/></clipPath></defs></svg>