<svg width="120" height="25" fill="none" xmlns="http://www.w3.org/2000/svg"><g clip-path="url(#a)" fill="#FFB577"><path d="M119.787 18.5621v2.9696h-2.491c-2.658-.0836-4.078-1.519-4.078-4.2152v-6.7823h-1.739v-2.605h1.739V5.0126h3.676v2.886h2.81v2.5975h-2.81v6.4557c0 .8735.174 1.5722 1.519 1.5722l1.374.038ZM96.8277 14.7569v-.1975a6.6443 6.6443 0 0 1 3.8333-6.3263 6.6406 6.6406 0 0 1 2.524-.6154h.531c3.471 0 6.517 2.0202 6.517 6.8354v1.0253h-9.646c.099 2.2178 1.299 3.4709 3.319 3.4709 1.739 0 2.552-.7595 2.787-1.8683h3.471c-.425 2.8936-2.734 4.5038-6.387 4.5038-4.0101-.0304-6.9493-2.5671-6.9493-6.8279Zm9.7903-1.6025c-.13-2.0203-1.147-2.9924-2.917-2.9924-1.77 0-2.787 1.0937-3.038 2.9924h5.955ZM81.8204 14.7569v-.1975a6.6459 6.6459 0 0 1 3.8224-6.3221 6.6453 6.6453 0 0 1 2.5194-.6196h.5316c3.4709 0 6.524 2.0202 6.524 6.8354v1.0253h-9.6379c.0987 2.2178 1.2987 3.4709 3.319 3.4709 1.7392 0 2.5519-.7595 2.7873-1.8683h3.4709c-.4329 2.8936-2.7418 4.5038-6.3949 4.5038-4.0026-.0304-6.9418-2.5671-6.9418-6.8279Zm9.7899-1.6025c-.1292-2.0203-1.1469-2.9924-2.9165-2.9924s-2.757 1.124-3.038 2.9848l5.9545.0076ZM60.7593 7.8987h3.8886l2.3772 9.0076 2.6051-9.0076h3.0379l2.3545 9.0076 2.5063-9.0076h3.562L76.8681 21.281h-3.6455l-2.2785-8.4-2.438 8.4H64.815L60.7593 7.8987ZM48.4023 17.0735h3.4709c.1595 1.2076.7595 1.8987 2.3545 1.8987 1.4278 0 2.0886-.5392 2.0886-1.4582 0-.919-.7595-1.3063-2.7038-1.5798-3.5621-.5392-4.9367-1.5645-4.9367-4.1772 0-2.7873 2.5519-4.1696 5.3164-4.1696 2.9696 0 5.2101 1.0785 5.5291 4.1544H56.096a1.8074 1.8074 0 0 0-1.9823-1.6329h-.1139c-1.2 0-1.8987.562-1.8987 1.3823s.6455 1.1772 2.605 1.4582c3.3266.5013 5.1874 1.3443 5.1874 4.2076s-2.1038 4.3975-5.6279 4.3975c-3.524 0-5.7645-1.5874-5.8633-4.481ZM33.6533 7.8987h3.676v2.119a4.602 4.602 0 0 1 4.3367-2.4304c2.605 0 4.4962 1.5873 4.4962 5.2101v8.514h-3.6304v-7.9823c0-1.8152-.7063-2.681-2.3468-2.681a2.6436 2.6436 0 0 0-1.9334.6127 2.6428 2.6428 0 0 0-.9299 1.8025 2.079 2.079 0 0 0 0 .486v7.7317h-3.6684V7.8987ZM26.5593 4.5343a1.853 1.853 0 0 1 2.1492-1.8965 1.853 1.853 0 0 1 1.4381 2.4794 1.8532 1.8532 0 0 1-1.6733 1.2019h-.0684a1.7315 1.7315 0 0 1-1.838-1.6254 1.1333 1.1333 0 0 1-.0076-.1594Zm0 3.3645h3.714v13.3823h-3.6988l-.0152-13.3823ZM12.562 2.9924h11.7418v3.243h-7.595v4.838h6.0152v3.1216h-6.0227v7.086H12.562V2.9924ZM5.476 8.9772c0 1.1469 0 2.5443-1.5798 3.1139 1.6177.5545 1.5798 1.7317 1.5798 2.9621v4.5569c0 .8658.3493 1.3899.9721 1.519.1368.0462.281.0668.4253.0608h1.519v3.0379H5.8861c-2.6734 0-4.1469-1.5189-4.1469-4.3367v-5.3924a1.1088 1.1088 0 0 0-1.086-1.0329H0V10.8h.6532a1.1014 1.1014 0 0 0 1.086-1.0633V4.2683C1.7392 1.4962 3.1822 0 5.8861 0h2.529v2.9924H6.8963a1.3824 1.3824 0 0 0-.4253.0684c-.6228.1595-.9722.676-.9722 1.519L5.476 8.9771Z"/></g><defs><clipPath id="a"><path fill="#fff" d="M0 0h120v24.3038H0z"/></clipPath></defs></svg>