<svg width="60" height="60" fill="none" xmlns="http://www.w3.org/2000/svg"><path d="M29.9999 60C13.4314 60 0 46.5686 0 30.0001S13.4314.00013 29.9999.00013s30 13.43147 30 29.99997c-.0176 16.5611-13.4387 29.9822-30 29.9999Zm12.6342-30.9558a2.14278 2.14278 0 0 0-.962-.962v-.0107L24.5293 19.5c-1.0588-.5289-2.3457-.0997-2.8748.959a2.1424 2.1424 0 0 0-.226.9696v17.1428c-.0005 1.1835.9584 2.1433 2.1419 2.1439.3328.0001.6612-.0772.9589-.226l17.1428-8.5715c1.0592-.5278 1.49-1.8144.962-2.8736Z" fill="#fff"/></svg>