<svg width="22" height="29" fill="none" xmlns="http://www.w3.org/2000/svg"><path d="M21.0896 5.2816v-3.582a.93.93 0 0 0-1.3879-.7878l-1.0581.6367-1.0581-.6367a.9162.9162 0 0 0-.9436.0046l-1.0535.6321-1.0581-.6321a.9076.9076 0 0 0-.9436 0l-1.0535.6321-1.0536-.6321a.907.907 0 0 0-.9436 0l-1.0535.6321-1.058-.6321a.916.916 0 0 0-.9436 0l-1.0536.6321L5.3738.9164a.9074.9074 0 0 0-.9436 0l-1.0535.6321L2.3232.9164a.9248.9248 0 0 0-1.388.7833v3.582a47.3814 47.3814 0 0 0 0 18.4869v3.5819a.9296.9296 0 0 0 .9293.9087.93.93 0 0 0 .4587-.1208l1.058-.6367 1.0582.6367a.9163.9163 0 0 0 .9436-.0046l1.0535-.6321 1.058.6321a.9076.9076 0 0 0 .9437 0l1.0535-.6321 1.0535.6321a.9079.9079 0 0 0 .9436 0l1.0535-.6321 1.0581.6321a.9162.9162 0 0 0 .9436 0l1.0535-.6321 1.0535.6321a.9079.9079 0 0 0 .9436 0l1.0535-.6321 1.0536.6321a.926.926 0 0 0 .9169.0035.9264.9264 0 0 0 .471-.7868v-3.5819a47.3833 47.3833 0 0 0 0-18.487ZM2.7675 3.3166l.1374.0824a.9074.9074 0 0 0 .9436 0l1.0535-.632 1.0535.632a.9074.9074 0 0 0 .9436 0l1.0535-.632 1.0581.632a.916.916 0 0 0 .9436 0l1.0535-.632 1.0536.632a.907.907 0 0 0 .9435 0l1.0536-.632 1.0581.632a.907.907 0 0 0 .4718.1329.9312.9312 0 0 0 .4718-.1329l1.0535-.632 1.0581.6366a.939.939 0 0 0 .9436 0l.142-.087V4.448H2.7675V3.3166Zm16.4899 22.417-.1375-.0824a.9073.9073 0 0 0-.9436 0l-1.0535.6321-1.0535-.6321a.9076.9076 0 0 0-.9436 0l-1.0535.6321-1.0581-.6321a.9163.9163 0 0 0-.9436 0l-1.0535.6321-1.0535-.6321a.9077.9077 0 0 0-.9436 0l-1.0535.6321-1.0581-.6321a.9162.9162 0 0 0-.9436 0l-1.0535.6321-1.0581-.6367a.9387.9387 0 0 0-.9436 0l-.142.087v-1.1314h16.4899v1.1314Zm.1603-2.9636H2.6072a45.5533 45.5533 0 0 1 0-16.4898h16.8105a45.5551 45.5551 0 0 1 0 16.4898Z" fill="#FFB577"/><path d="M15.0753 11.8272a2.8596 2.8596 0 0 0-2.1437-.9664h-.4305a2.9552 2.9552 0 0 0-.5726.0641V9.4866a.916.916 0 1 0-1.8322 0v1.4383a2.955 2.955 0 0 0-.5726-.0641h-.4305a2.8624 2.8624 0 0 0-2.734 2.0168 2.863 2.863 0 0 0-.106 1.1987l.4306 3.4399a2.8672 2.8672 0 0 0 2.84 2.5056 2.8279 2.8279 0 0 0 1.4886-.426 2.828 2.828 0 0 0 1.4887.426 2.8671 2.8671 0 0 0 2.8399-2.5056l.4306-3.4399a2.8684 2.8684 0 0 0-.6963-2.2491Zm-1.1222 2.0246-.4306 3.4354a1.0333 1.0333 0 0 1-.3407.6436c-.188.166-.4299.258-.6807.2588a1.0226 1.0226 0 0 1-.7833-.3756.9196.9196 0 0 0-.7054-.3298.919.919 0 0 0-.7054.3298 1.0205 1.0205 0 0 1-.3497.2751 1.0204 1.0204 0 0 1-.4336.1005 1.0333 1.0333 0 0 1-1.0214-.9024l-.4306-3.4354a1.033 1.033 0 0 1 1.0215-1.1588h.4305a1.0217 1.0217 0 0 1 .7833.3756.9528.9528 0 0 0 1.4108 0 1.022 1.022 0 0 1 .7833-.3756h.4305a1.0329 1.0329 0 0 1 1.0215 1.1588Z" fill="#FFB577"/></svg>