<svg width="15" height="15" fill="none" xmlns="http://www.w3.org/2000/svg"><path d="M13.9309.4985H1.6221C1.0324.4985.5557.964.5557 1.5395v12.3596c0 .5756.4767 1.0439 1.0664 1.0439h12.3088c.5896 0 1.0692-.4683 1.0692-1.041V1.5396c0-.5756-.4796-1.041-1.0692-1.041ZM4.841 12.8073H2.697v-6.895h2.144v6.895ZM3.769 4.9729c-.6884 0-1.2442-.5557-1.2442-1.2413 0-.6855.5558-1.2413 1.2442-1.2413.6855 0 1.2413.5558 1.2413 1.2413 0 .6827-.5558 1.2413-1.2413 1.2413Zm9.0955 7.8344h-2.1413V9.4558c0-.7984-.0141-1.8281-1.1144-1.8281-1.1143 0-1.2836.8717-1.2836 1.7717v3.4079H6.1867v-6.895h2.0539v.9424h.0282c.285-.5417.9846-1.1144 2.0256-1.1144 2.1695 0 2.5701 1.4275 2.5701 3.2838v3.7832Z" fill="#fff"/></svg>