<svg width="15" height="13" fill="none" xmlns="http://www.w3.org/2000/svg"><path d="M5.0626 12.5888c5.4494 0 8.4308-4.5158 8.4308-8.4308 0-.127-.0028-.2567-.0084-.3837a6.0175 6.0175 0 0 0 1.478-1.5341 5.8421 5.8421 0 0 1-1.7009.4655 2.9796 2.9796 0 0 0 1.3031-1.6389 5.9566 5.9566 0 0 1-1.8811.7192 2.9676 2.9676 0 0 0-4.8628.8069 2.9673 2.9673 0 0 0-.1891 1.8952 8.4168 8.4168 0 0 1-6.1068-3.094 2.9668 2.9668 0 0 0 .917 3.9545 2.9671 2.9671 0 0 1-1.3427-.3696v.0367a2.9622 2.9622 0 0 0 2.3777 2.9058 2.9456 2.9456 0 0 1-1.337.0508 2.9693 2.9693 0 0 0 2.767 2.0594 5.9434 5.9434 0 0 1-4.3888 1.2261 8.4064 8.4064 0 0 0 4.544 1.331Z" fill="#fff"/></svg>